<svg width="2001" height="512" viewBox="0 0 2001 512" fill="none" xmlns="http://www.w3.org/2000/svg">
<g clip-path="url(#clip0_1002_3148)">
<path d="M692.104 365.234H853.662V401.13H640.5V376.437L796.456 156.553H646.102V120.657H848.06V145.327L692.104 365.234ZM883.817 401.13H920.857V120.657H883.817V401.13ZM1084.24 362.433L986.068 120.657H946.811L1061.81 401.13H1106.66L1221.66 120.657H1182.4L1084.24 362.433ZM1480.12 120.657L1381.96 362.433L1283.79 120.657H1244.51L1359.5 401.13H1404.39L1519.38 120.657H1480.12ZM1798.78 262.002C1798.78 267.627 1798.22 273.672 1797.66 279.39H1551.38C1559.25 336.619 1603.57 371.956 1663.01 371.956C1707.36 371.956 1738.19 351.207 1753.34 324.273L1785.87 343.341C1762.32 381.502 1719.12 407.852 1662.45 407.852C1573.76 407.852 1513.24 345.582 1513.24 260.812C1513.24 178.352 1572.71 113.771 1659.65 113.771C1745.47 113.911 1798.78 185.168 1798.78 262.002ZM1760.62 243.494C1752.78 181.783 1707.9 149.808 1659.65 149.808C1600.74 149.808 1558.69 188.529 1551.38 243.494H1760.62ZM1826.28 120.657V401.13H1863.32V157.697H1963.68V120.657H1826.28ZM902.325 48C897.649 48 893.078 49.3867 889.19 51.9846C885.302 54.5825 882.271 58.2751 880.482 62.5953C878.692 66.9155 878.224 71.6694 879.136 76.2557C880.049 80.842 882.3 85.0549 885.607 88.3614C888.914 91.668 893.126 93.9198 897.713 94.832C902.299 95.7443 907.053 95.2761 911.373 93.4866C915.693 91.6971 919.386 88.6667 921.984 84.7786C924.582 80.8905 925.968 76.3193 925.968 71.6432C925.971 68.5374 925.362 65.4616 924.175 62.5917C922.988 59.7218 921.246 57.1142 919.05 54.9181C916.854 52.722 914.247 50.9806 911.377 49.7935C908.507 48.6064 905.431 47.9969 902.325 48Z" fill="white"/>
<path fill-rule="evenodd" clip-rule="evenodd" d="M0.5 321.6V68.8C0.5 36.8 24.5 9.6 56.5 8C98.1 3.2 160.5 0 227.7 0C294.9 0 357.3 3.2 398.9 8C430.9 11.2 454.9 36.8 454.9 68.8V321.6C454.9 444.8 227.7 512 227.7 512C227.7 512 0.5 444.8 0.5 321.6ZM310.9 180.8C314.1 169.6 333.3 152 346.1 140.8C358.9 131.2 392.5 123.2 406.9 118.4C419.7 113.6 413.3 115.2 403.7 116.8C384.5 118.4 355.7 124.8 338.1 123.2C323.7 120 304.5 113.6 290.1 118.4C270.9 121.6 262.9 129.6 253.3 148.8C248.5 155.2 243.7 171.2 234.1 169.6C210.1 164.8 170.1 145.6 149.3 140.8C122.1 139.2 72.5 139.2 43.7 140.8C70.9 158.4 112.5 168 133.3 190.4C149.3 206.4 173.3 225.6 190.9 235.2C198.9 240 202.1 246.4 200.5 254.4C194.1 292.8 189.3 334.4 195.7 371.2C197.3 392 198.9 408 210.1 424C213.3 428.8 216.5 430.4 218.1 422.4C224.5 382.4 226.1 320 246.9 286.4C262.9 268.8 296.5 249.6 304.5 233.6C312.5 217.6 307.7 192 310.9 180.8Z" fill="white"/>
</g>
<defs>
<clipPath id="clip0_1002_3148">
<rect width="2000" height="512" fill="white" transform="translate(0.5)"/>
</clipPath>
</defs>
</svg>
